<svg xmlns="http://www.w3.org/2000/svg" xmlns:xlink="http://www.w3.org/1999/xlink" version="1.1" x="0px" y="0px" viewBox="0 0 48 60" enable-background="new 0 0 48 48" xml:space="preserve"><g><path fill="none" stroke="#000000" stroke-width="2" stroke-miterlimit="10" d="M47,31.65c0,2.513-2.056,4.568-4.568,4.568H5.569   C3.056,36.219,1,34.163,1,31.65V16.35c0-2.513,2.056-4.568,4.569-4.568h36.862c2.513,0,4.568,2.056,4.568,4.568V31.65z"/><line fill="none" stroke="#000000" stroke-width="2" stroke-miterlimit="10" x1="29.656" y1="11.51" x2="29.656" y2="36.49"/><g><path fill="none" stroke="#000000" stroke-width="2" stroke-linecap="round" stroke-miterlimit="10" d="M40.327,19.171    c0.889,0.889,1.346,2.047,1.368,3.213c0.024,1.227-0.431,2.462-1.368,3.399c-1.825,1.826-4.786,1.826-6.612,0    c-1.827-1.827-1.827-4.787,0-6.612C35.541,17.344,38.501,17.344,40.327,19.171z"/><line fill="none" stroke="#000000" stroke-width="2" stroke-linecap="round" stroke-miterlimit="10" x1="40.445" y1="25.901" x2="44.743" y2="30.199"/></g></g><text x="0" y="63" fill="#000000" font-size="5px" font-weight="bold" font-family="'Helvetica Neue', Helvetica, Arial-Unicode, Arial, Sans-serif">Created by Creative Stall</text><text x="0" y="68" fill="#000000" font-size="5px" font-weight="bold" font-family="'Helvetica Neue', Helvetica, Arial-Unicode, Arial, Sans-serif">from the Noun Project</text></svg>